# File created by Blade
# Date/Time:  Thu Jan 22 15:33:09 2015
#---------------------------------------------------------
:version 1.10
:name HOM
:units
  mass 1.0
  length 1.000000
  angle deg
:documentation
     Acclaim Skeleton File
:root
   axis xyz
   order TX TY TZ RX RY RZ
   position 0.000000 0.000000 0.000000
   orientation 0 0 0
:bonedata
   begin
      id 1
      name RightUpLeg_dum
      direction -1.000000 0.000000 0.000000
      length 3.693983
      axis 0.0 0.0 0.0 xyz
   end
   begin
      id 2
      name LeftUpLeg_dum
      direction 1.000000 0.000000 0.000000
      length 3.693983
      axis 0.0 0.0 0.0 xyz
   end
   begin
      id 3
      name Spine_dum
      direction 0.000000 1.000000 0.000000
      length 2.392956
      axis 0.0 0.0 0.0 xyz
   end
   begin
      id 4
      name RightUpLeg
      direction 0.000000 -1.000000 0.000000
      length 15.795667
      axis 0.0 0.0 0.0 xyz
      dof rx ry rz
   end
   begin
      id 5
      name RightLeg
      direction 0.000000 -1.000000 0.000000
      length 14.766989
      axis 0.0 0.0 0.0 xyz
      dof rx ry rz
   end
   begin
      id 6
      name RightFoot
      direction 0.000000 -0.258819 0.965926
      length 4.962790
      axis 15.0 0.0 0.0 xyz
      dof rx ry rz
   end
   begin
      id 7
      name RightToeBase
      direction 0.000000 0.000000 1.000000
      length 2.952750
      axis 0.0 0.0 0.0 xyz
      dof rx ry rz
   end
   begin
      id 8
      name LeftUpLeg
      direction 0.000000 -1.000000 0.000000
      length 15.795667
      axis 0.0 0.0 0.0 xyz
      dof rx ry rz
   end
   begin
      id 9
      name LeftLeg
      direction 0.000000 -1.000000 0.000000
      length 14.766989
      axis 0.0 0.0 0.0 xyz
      dof rx ry rz
   end
   begin
      id 10
      name LeftFoot
      direction 0.000000 -0.258819 0.965926
      length 4.962790
      axis 15.0 0.0 0.0 xyz
      dof rx ry rz
   end
   begin
      id 11
      name LeftToeBase
      direction 0.000000 0.000000 1.000000
      length 2.952750
      axis 0.0 0.0 0.0 xyz
      dof rx ry rz
   end
   begin
      id 12
      name Spine
      direction 0.000000 1.000000 0.000000
      length 0.000000
      axis 0.0 0.0 0.0 xyz
      dof rx ry rz
   end
   begin
      id 13
      name Spine_dum1
      direction 0.000000 1.000000 0.000000
      length 13.207411
      axis 0.0 0.0 0.0 xyz
   end
   begin
      id 14
      name Spine_dum2
      direction 0.000000 1.000000 0.000000
      length 13.207411
      axis 0.0 0.0 0.0 xyz
   end
   begin
      id 15
      name Spine_dum3
      direction 0.000000 1.000000 0.000000
      length 19.250100
      axis 0.0 0.0 0.0 xyz
   end
   begin
      id 16
      name RightShoulder
      direction -1.000000 0.000000 0.000000
      length 8.140465
      axis 0.0 0.0 90.0 xyz
      dof rx ry rz
   end
   begin
      id 17
      name RightArm
      direction -1.000000 0.000000 0.000000
      length 10.649840
      axis 0.0 0.0 90.0 xyz
      dof rx ry rz
   end
   begin
      id 18
      name RightForeArm
      direction -1.000000 0.000000 0.000000
      length 8.304624
      axis 0.0 0.0 90.0 xyz
      dof ry rz rx
   end
   begin
      id 19
      name RightHand
      direction -1.000000 0.000000 0.000000
      length 0.000000
      axis 0.0 0.0 90.0 xyz
      dof rx ry rz
   end
   begin
      id 20
      name RightHand_dum1
      direction -1.000000 0.000000 0.000000
      length 3.937000
      axis 0.0 0.0 90.0 xyz
   end
   begin
      id 21
      name RightHand_dum2
      direction 0.000000 0.000000 0.000000
      length 0.000000
      axis 0.0 0.0 90.0 xyz
   end
   begin
      id 22
      name RightHandThumb1
      direction 0.000000 0.000000 1.000000
      length 3.937000
      axis 0.0 0.0 90.0 xyz
      dof rx rz ry
   end
   begin
      id 23
      name LeftShoulder
      direction 1.000000 0.000000 0.000000
      length 8.140465
      axis 0.0 0.0 -90.0 xyz
      dof rx ry rz
   end
   begin
      id 24
      name LeftArm
      direction 1.000000 0.000000 0.000000
      length 10.649840
      axis 0.0 0.0 -90.0 xyz
      dof rx ry rz
   end
   begin
      id 25
      name LeftForeArm
      direction 1.000000 0.000000 0.000000
      length 8.304624
      axis 0.0 0.0 -90.0 xyz
      dof ry rz rx
   end
   begin
      id 26
      name LeftHand
      direction 1.000000 0.000000 0.000000
      length 0.000000
      axis 0.0 0.0 -90.0 xyz
      dof rx ry rz
   end
   begin
      id 27
      name LeftHand_dum1
      direction 1.000000 0.000000 0.000000
      length 3.937000
      axis 0.0 0.0 -90.0 xyz
   end
   begin
      id 28
      name LeftHand_dum2
      direction 0.000000 0.000000 0.000000
      length 0.000000
      axis 0.0 0.0 -90.0 xyz
   end
   begin
      id 29
      name LeftHandThumb1
      direction 0.000000 0.000000 1.000000
      length 3.937000
      axis 0.0 0.0 -90.0 xyz
      dof rx rz ry
   end
   begin
      id 30
      name Head
      direction 0.000000 1.000000 0.000000
      length 4.527550
      axis 0.0 0.0 0.0 xyz
      dof rx ry rz
   end
:hierarchy
   begin
      root RightUpLeg_dum LeftUpLeg_dum Spine_dum
      RightUpLeg_dum RightUpLeg
      LeftUpLeg_dum LeftUpLeg
      Spine_dum Spine
      RightUpLeg RightLeg
      RightLeg RightFoot
      RightFoot RightToeBase
      LeftUpLeg LeftLeg
      LeftLeg LeftFoot
      LeftFoot LeftToeBase
      Spine Spine_dum1 Spine_dum2 Spine_dum3
      Spine_dum1 RightShoulder
      Spine_dum2 LeftShoulder
      Spine_dum3 Head
      RightShoulder RightArm
      RightArm RightForeArm
      RightForeArm RightHand
      RightHand RightHand_dum1 RightHand_dum2
      RightHand_dum2 RightHandThumb1
      LeftShoulder LeftArm
      LeftArm LeftForeArm
      LeftForeArm LeftHand
      LeftHand LeftHand_dum1 LeftHand_dum2
      LeftHand_dum2 LeftHandThumb1
   end

# File created by Blade
# Date/Time:  Thu Jan 22 15:33:01 2015
# Frame Rate: 120.000 fps
#------------------------------------------------------
:FULLY-SPECIFIED
:DEGREES
654
root -14.460806 3.088032 4.291641 100.212944 -76.034630 -157.546233
RightUpLeg -104.198842 4.721608 7.980167
RightLeg 132.437749 -0.000000 -0.000000
RightFoot 19.524416 4.999347 11.181338
RightToeBase 26.247000 -0.000000 -0.000000
LeftUpLeg -109.049713 6.598616 20.651989
LeftLeg 134.153984 -0.000000 -0.000000
LeftFoot 19.016877 -28.390614 7.671086
LeftToeBase -10.713528 -0.000000 0.000000
Spine 19.473360 4.459010 7.135128
RightShoulder 3.755155 -5.240329 2.103965
RightArm 21.331319 -40.328291 62.501147
RightForeArm 75.039469 0.000000 24.957779
RightHand 11.757227 -0.000000 18.521370
RightHandThumb1 -24.326973 -0.000000 -32.862282
LeftShoulder 16.151732 27.431952 10.776501
LeftArm 47.634943 22.707503 -53.606800
LeftForeArm -43.518857 -0.000000 14.721576
LeftHand -5.345095 0.000000 -17.247861
LeftHandThumb1 -26.253704 0.000000 33.147579
Head 62.174499 -13.280555 12.943023
655
root -14.455811 3.097682 4.268098 100.320682 -76.118982 -157.829591
RightUpLeg -104.420024 4.774787 8.049255
RightLeg 132.586920 -0.000000 -0.000000
RightFoot 19.302702 4.706322 11.111152
RightToeBase 26.509606 -0.000000 -0.000000
LeftUpLeg -109.362498 6.767134 20.598224
LeftLeg 134.311578 -0.000000 -0.000000
LeftFoot 20.252993 -28.558395 7.009478
LeftToeBase -10.818252 -0.000000 0.000000
Spine 19.037430 4.647162 6.928471
RightShoulder 3.622047 -5.159500 2.091957
RightArm 20.899555 -40.465088 62.961801
RightForeArm 73.836814 0.000000 25.026383
RightHand 11.814791 -0.000000 18.433705
RightHandThumb1 -24.326973 -0.000000 -32.862282
LeftShoulder 16.292977 27.303189 11.008394
LeftArm 47.993924 23.151594 -53.221816
LeftForeArm -42.772838 -0.000000 13.671491
LeftHand -5.067903 -0.000000 -17.719879
LeftHandThumb1 -26.253704 0.000000 33.147579
Head 62.189249 -13.387034 13.142322
656
root -14.447656 3.110643 4.241546 100.470637 -76.158678 -158.137421
RightUpLeg -104.624517 4.850043 8.139198
RightLeg 132.746001 -0.000000 -0.000000
RightFoot 19.245567 4.304948 11.237004
RightToeBase 26.065010 -0.000000 -0.000000
LeftUpLeg -109.671749 6.936992 20.527866
LeftLeg 134.443911 -0.000000 -0.000000
LeftFoot 21.349380 -28.732713 6.504506
LeftToeBase -11.442357 -0.000000 0.000000
Spine 18.542027 4.793559 6.760683
RightShoulder 3.587687 -4.974025 2.092987
RightArm 20.176842 -40.660953 63.546651
RightForeArm 72.458818 -0.000000 25.261094
RightHand 12.108894 0.000000 18.118509
RightHandThumb1 -24.326973 -0.000000 -32.862282
LeftShoulder 16.386475 27.182086 11.240345
LeftArm 48.199164 23.560440 -52.957109
LeftForeArm -42.069711 0.000000 12.648781
LeftHand -4.922312 -0.000000 -18.514274
LeftHandThumb1 -26.253704 0.000000 33.147579
Head 62.317522 -13.384066 13.276895
657
root -14.432261 3.125266 4.245576 100.446391 -76.356544 -158.174809
RightUpLeg -104.944191 4.716144 8.015365
RightLeg 132.907854 -0.000000 -0.000000
RightFoot 19.271601 3.992239 11.159732
RightToeBase 26.243301 -0.000000 -0.000000
LeftUpLeg -110.021543 6.882908 20.221255
LeftLeg 134.505041 -0.000000 -0.000000
LeftFoot 22.216566 -28.922994 6.227079
LeftToeBase -12.523508 -0.000000 0.000000
Spine 17.932139 4.761780 6.558897
RightShoulder 3.604402 -4.997582 1.993802
RightArm 19.640843 -40.726276 63.970110
RightForeArm 71.422035 0.000000 25.551418
RightHand 12.146325 -0.000000 17.686568
RightHandThumb1 -24.326973 -0.000000 -32.862282
LeftShoulder 16.343988 27.067220 11.238280
LeftArm 48.235357 23.877625 -52.858600
LeftForeArm -41.480535 -0.000000 11.706348
LeftHand -4.789612 -0.000000 -19.108373
LeftHandThumb1 -26.253704 0.000000 33.147579
Head 62.613629 -13.204659 13.047703
658
root -14.414043 3.143511 4.237563 100.384216 -76.798314 -158.166125
RightUpLeg -105.317820 4.600822 7.655648
RightLeg 133.126881 -0.000000 -0.000000
RightFoot 19.358889 3.579803 11.237375
RightToeBase 26.172640 -0.000000 -0.000000
LeftUpLeg -110.297059 6.792656 19.638604
LeftLeg 134.502401 -0.000000 -0.000000
LeftFoot 22.932815 -29.062732 5.957039
LeftToeBase -13.175102 -0.000000 0.000000
Spine 17.285365 4.752594 6.041519
RightShoulder 3.522306 -5.066718 2.026667
RightArm 19.104548 -40.765647 64.313364
RightForeArm 70.410986 -0.000000 25.909131
RightHand 12.084550 -0.000000 17.334837
RightHandThumb1 -24.326973 -0.000000 -32.862282
LeftShoulder 16.280146 26.992704 11.384907
LeftArm 48.199353 24.126020 -52.892185
LeftForeArm -40.693533 -0.000000 10.965080
LeftHand -4.677532 0.000000 -19.346332
LeftHandThumb1 -26.253704 0.000000 33.147579
Head 62.930535 -13.111806 13.074432
659
root -14.417159 3.158976 4.254290 100.310695 -76.929593 -158.243199
RightUpLeg -105.589777 4.424078 7.590000
RightLeg 133.361101 -0.000000 -0.000000
RightFoot 19.481746 3.248196 11.241598
RightToeBase 26.233630 -0.000000 -0.000000
LeftUpLeg -110.566614 6.659954 19.361103
LeftLeg 134.630304 -0.000000 -0.000000
LeftFoot 23.331707 -29.239186 5.919582
LeftToeBase -13.672287 -0.000000 0.000000
Spine 16.689760 4.695728 6.016955
RightShoulder 3.461750 -5.107034 1.736243
RightArm 18.470121 -40.872569 64.824525
RightForeArm 69.394925 -0.000000 26.377504
RightHand 11.992412 -0.000000 16.847216
RightHandThumb1 -24.326973 -0.000000 -32.862282
LeftShoulder 16.070173 26.871324 11.368244
LeftArm 48.035698 24.489979 -52.993238
LeftForeArm -39.565688 -0.000000 10.500237
LeftHand -4.588401 -0.000000 -19.312283
LeftHandThumb1 -26.253704 0.000000 33.147579
Head 63.241300 -12.767144 12.597842
660
root -14.408201 3.170043 4.256375 100.327219 -76.947066 -158.359622
RightUpLeg -105.868944 4.318366 7.513594
RightLeg 133.480668 -0.000000 -0.000000
RightFoot 19.744204 2.985385 11.515099
RightToeBase 26.844498 -0.000000 -0.000000
LeftUpLeg -110.854052 6.558454 19.011098
LeftLeg 134.917250 -0.000000 -0.000000
LeftFoot 22.666369 -28.807794 6.968442
LeftToeBase -12.829557 -0.000000 0.000000
Spine 16.060852 4.705402 6.054107
RightShoulder 3.333932 -5.175820 1.526192
RightArm 17.878289 -40.986363 65.216130
RightForeArm 68.391289 0.000000 26.971959
RightHand 11.635550 -0.000000 16.324090
RightHandThumb1 -24.326973 -0.000000 -32.862282
LeftShoulder 15.789795 26.669576 11.346801
LeftArm 47.763159 24.819057 -53.206742
LeftForeArm -38.388995 -0.000000 10.092400
LeftHand -4.558357 -0.000000 -19.186946
LeftHandThumb1 -26.253704 0.000000 33.147579
Head 63.504598 -12.494173 12.264497
661
root -14.405711 3.182275 4.280088 100.241037 -77.086820 -158.394110
RightUpLeg -106.189350 4.073221 7.310809
RightLeg 133.660063 -0.000000 -0.000000
RightFoot 20.203471 2.872229 11.422303
RightToeBase 26.349104 -0.000000 -0.000000
LeftUpLeg -111.087785 6.358206 18.682187
LeftLeg 135.033644 -0.000000 -0.000000
LeftFoot 22.579864 -28.678217 7.098677
LeftToeBase -12.184591 -0.000000 0.000000
Spine 15.424880 4.643554 6.050827
RightShoulder 3.173052 -5.221522 1.229518
RightArm 17.163041 -41.071155 65.668368
RightForeArm 67.149442 -0.000000 27.655369
RightHand 11.169455 -0.000000 16.095633
RightHandThumb1 -24.326973 -0.000000 -32.862282
LeftShoulder 15.450655 26.506922 11.300426
LeftArm 47.457378 25.188141 -53.486625
LeftForeArm -37.621254 -0.000000 9.843168
LeftHand -4.572023 -0.000000 -19.215639
LeftHandThumb1 -26.253704 0.000000 33.147579
Head 63.788482 -12.147066 11.786478
662
root -14.394518 3.202269 4.297717 99.980417 -77.139499 -158.127510
RightUpLeg -106.567951 3.838431 7.208824
RightLeg 133.793499 -0.000000 -0.000000
RightFoot 20.563622 2.726887 11.434817
RightToeBase 26.354605 -0.000000 -0.000000
LeftUpLeg -111.391632 6.159622 18.412387
LeftLeg 135.118765 -0.000000 -0.000000
LeftFoot 22.295928 -28.380400 7.251298
LeftToeBase -11.133136 -0.000000 0.000000
Spine 14.621678 4.555944 6.119450
RightShoulder 2.941983 -5.315239 1.037855
RightArm 16.507561 -41.145848 65.950383
RightForeArm 65.384258 -0.000000 28.376445
RightHand 10.795974 -0.000000 15.736841
RightHandThumb1 -24.326973 -0.000000 -32.862282
LeftShoulder 15.078800 26.492106 11.237466
LeftArm 47.078926 25.273703 -53.993492
LeftForeArm -36.750796 -0.000000 9.617325
LeftHand -4.599325 -0.000000 -19.309922
LeftHandThumb1 -26.253704 0.000000 33.147579
Head 64.181951 -11.846179 11.392992
663
root -14.399138 3.220837 4.307289 100.102395 -77.018021 -158.366391
RightUpLeg -106.858274 3.742571 7.273812
RightLeg 133.923631 -0.000000 -0.000000
RightFoot 20.947005 2.557389 11.341984
RightToeBase 26.512429 -0.000000 -0.000000
LeftUpLeg -111.639300 6.076746 18.259138
LeftLeg 135.301393 -0.000000 -0.000000
LeftFoot 21.982478 -27.820740 7.453392
LeftToeBase -10.050897 -0.000000 0.000000
Spine 13.917613 4.613188 6.363105
RightShoulder 2.619055 -5.474391 0.715497
RightArm 15.930313 -41.350143 66.184459
RightForeArm 63.351127 0.000000 29.301795
RightHand 10.533720 -0.000000 15.278490
RightHandThumb1 -24.326973 -0.000000 -32.862282
LeftShoulder 14.590555 26.292250 11.234066
LeftArm 46.487929 25.556064 -54.719599
LeftForeArm -35.878193 0.000000 9.625985
LeftHand -4.755489 -0.000000 -19.033265
LeftHandThumb1 -26.253704 0.000000 33.147579
Head 64.397964 -11.542108 10.951307
664
root -14.398478 3.234369 4.335507 100.027665 -76.895908 -158.366396
RightUpLeg -107.211204 3.524306 7.288812
RightLeg 133.988721 -0.000000 -0.000000
RightFoot 21.446294 2.476323 11.199406
RightToeBase 26.667039 -0.000000 -0.000000
LeftUpLeg -111.956223 5.883265 18.024701
LeftLeg 135.423280 -0.000000 -0.000000
LeftFoot 21.982253 -26.963617 7.177977
LeftToeBase -9.512210 -0.000000 0.000000
Spine 13.176596 4.547737 6.693294
RightShoulder 2.356159 -5.569055 0.248780
RightArm 15.209852 -41.551635 66.554074
RightForeArm 60.953167 -0.000000 30.362095
RightHand 10.158821 -0.000000 14.829278
RightHandThumb1 -24.326973 -0.000000 -32.862282
LeftShoulder 13.947183 26.162667 11.128164
LeftArm 46.061712 25.877036 -55.310358
LeftForeArm -35.059960 -0.000000 9.648333
LeftHand -4.899643 -0.000000 -19.017217
LeftHandThumb1 -26.253704 0.000000 33.147579
Head 64.668590 -11.144689 10.367201
